<?xml version="1.0" encoding="utf-8"?>
<!-- Generator: Adobe Illustrator 18.0.0, SVG Export Plug-In . SVG Version: 6.00 Build 0)  -->
<!DOCTYPE svg PUBLIC "-//W3C//DTD SVG 1.1//EN" "http://www.w3.org/Graphics/SVG/1.1/DTD/svg11.dtd">
<svg version="1.1" id="Layer_1" xmlns="http://www.w3.org/2000/svg" xmlns:xlink="http://www.w3.org/1999/xlink" x="0px" y="0px"
	 viewBox="0 0 4000 2060.6" enable-background="new 0 0 4000 2060.6" xml:space="preserve">
<pattern  x="1856" y="1240.7" width="1093.4" height="631.1" patternUnits="userSpaceOnUse" id="Hexforever" viewBox="91.1 -710 1093.4 631.1" overflow="visible">
	<g>
		<polygon fill="none" points="91.1,-710 1184.5,-710 1184.5,-78.9 91.1,-78.9 		"/>
		<g>
			<polygon fill="#A9ABAC" points="1139,-157.8 1093.4,-236.7 1139,-315.6 1230.1,-315.6 1275.6,-236.7 1230.1,-157.8 			"/>
			<polygon fill="#A7A9A9" points="1002.3,-236.7 956.7,-315.6 1002.3,-394.5 1093.4,-394.5 1138.9,-315.6 1093.4,-236.7 			"/>
			<polygon fill="#969093" points="1002.3,-394.5 956.7,-473.3 1002.3,-552.2 1093.4,-552.2 1138.9,-473.3 1093.4,-394.5 			"/>
			<polygon fill="#B9BBBB" points="1002.3,-78.9 956.7,-157.8 1002.3,-236.7 1093.4,-236.7 1138.9,-157.8 1093.4,-78.9 			"/>
			<polygon fill="#C7C9C8" points="865.6,0 820.1,-78.9 865.6,-157.8 956.7,-157.8 1002.3,-78.9 956.7,0 			"/>
			<polygon fill="#A4A7A9" points="865.6,-157.8 820.1,-236.7 865.6,-315.6 956.7,-315.6 1002.3,-236.7 956.7,-157.8 			"/>
			<polygon fill="#867D7F" points="865.6,-315.6 820.1,-394.5 865.6,-473.3 956.7,-473.3 1002.3,-394.5 956.7,-315.6 			"/>
			<polygon fill="#ADAFB0" points="1139,0 1093.4,-78.9 1139,-157.8 1230.1,-157.8 1275.6,-78.9 1230.1,0 			"/>
			<polygon fill="#8C8F93" points="1139,-315.6 1093.4,-394.5 1139,-473.3 1230.1,-473.3 1275.6,-394.5 1230.1,-315.6 			"/>
		</g>
		<g>
			<polygon fill="#969093" points="455.6,-78.9 410,-157.8 455.6,-236.7 546.7,-236.7 592.2,-157.8 546.7,-78.9 			"/>
			<polygon fill="#6B7074" points="729,-78.9 683.4,-157.8 729,-236.7 820.1,-236.7 865.6,-157.8 820.1,-78.9 			"/>
			<polygon fill="#D2D1D4" points="865.7,0 820.1,-78.9 865.7,-157.8 956.8,-157.8 1002.3,-78.9 956.8,0 			"/>
			<polygon fill="#867D7F" points="318.9,0 273.4,-78.9 318.9,-157.8 410,-157.8 455.6,-78.9 410,0 			"/>
			<polygon fill="#8C8F93" points="592.3,0 546.7,-78.9 592.3,-157.8 683.4,-157.8 728.9,-78.9 683.4,0 			"/>
		</g>
		<g>
			<polygon fill="#A9ABAC" points="45.5,-157.8 0,-236.7 45.5,-315.6 136.6,-315.6 182.2,-236.7 136.6,-157.8 			"/>
			<polygon fill="#B9BBBB" points="182.3,-78.9 136.7,-157.8 182.3,-236.7 273.4,-236.7 318.9,-157.8 273.4,-78.9 			"/>
			<polygon fill="#A4A7A9" points="182.3,-236.7 136.7,-315.6 182.3,-394.5 273.4,-394.5 318.9,-315.6 273.4,-236.7 			"/>
			<polygon fill="#6B7074" points="182.3,-394.5 136.7,-473.3 182.3,-552.2 273.4,-552.2 318.9,-473.3 273.4,-394.5 			"/>
			<polygon fill="#DBD9D6" points="319,-157.8 273.4,-236.7 319,-315.6 410,-315.6 455.6,-236.7 410,-157.8 			"/>
			<polygon fill="#D2D1D4" points="319,-315.6 273.4,-394.5 319,-473.3 410,-473.3 455.6,-394.5 410,-315.6 			"/>
			<polygon fill="#B9B8B9" points="319,0 273.4,-78.9 319,-157.8 410,-157.8 455.6,-78.9 410,0 			"/>
			<polygon fill="#ADAFB0" points="45.5,0 0,-78.9 45.5,-157.8 136.6,-157.8 182.2,-78.9 136.6,0 			"/>
			<polygon fill="#8C8F93" points="45.5,-315.6 0,-394.5 45.5,-473.3 136.6,-473.3 182.2,-394.5 136.6,-315.6 			"/>
		</g>
		<g>
			<polygon fill="#959497" points="1002.3,-394.5 956.7,-473.3 1002.3,-552.2 1093.4,-552.2 1138.9,-473.3 1093.4,-394.5 			"/>
			<polygon fill="#B2B5B6" points="1002.3,-552.2 956.7,-631.1 1002.3,-710 1093.4,-710 1138.9,-631.1 1093.4,-552.2 			"/>
			<polygon fill="#C5C4C3" points="1139,-473.3 1093.4,-552.2 1139,-631.1 1230.1,-631.1 1275.6,-552.2 1230.1,-473.3 			"/>
			<polygon fill="#41464B" points="865.6,-473.3 820.1,-552.2 865.6,-631.1 956.7,-631.1 1002.3,-552.2 956.7,-473.3 			"/>
			<polygon fill="#C7C9C8" points="865.6,-631.1 820.1,-710 865.6,-788.9 956.7,-788.9 1002.3,-710 956.7,-631.1 			"/>
			<polygon fill="#ADAFB0" points="1139,-631.1 1093.4,-710 1139,-788.9 1230.1,-788.9 1275.6,-710 1230.1,-631.1 			"/>
		</g>
		<g>
			<polygon fill="#A9ABAC" points="592.3,-473.3 546.7,-552.2 592.3,-631.1 683.4,-631.1 728.9,-552.2 683.4,-473.3 			"/>
			<polygon fill="#B9BBBB" points="729,-394.5 683.4,-473.3 729,-552.2 820.1,-552.2 865.6,-473.3 820.1,-394.5 			"/>
			<polygon fill="#A4A7A9" points="729,-552.2 683.4,-631.1 729,-710 820.1,-710 865.6,-631.1 820.1,-552.2 			"/>
			<polygon fill="#A7A9A9" points="455.6,-552.2 410,-631.1 455.6,-710 546.7,-710 592.2,-631.1 546.7,-552.2 			"/>
			<polygon fill="#969093" points="455.6,-710 410,-788.9 455.6,-867.8 546.7,-867.8 592.2,-788.9 546.7,-710 			"/>
			<polygon fill="#959497" points="455.6,-78.9 410,-157.8 455.6,-236.7 546.7,-236.7 592.2,-157.8 546.7,-78.9 			"/>
			<polygon fill="#6B7074" points="729,-710 683.4,-788.9 729,-867.8 820.1,-867.8 865.6,-788.9 820.1,-710 			"/>
			<polygon fill="#B9BBBB" points="729,-78.9 683.4,-157.8 729,-236.7 820.1,-236.7 865.6,-157.8 820.1,-78.9 			"/>
			<polygon fill="#B9BBBB" points="455.6,-394.5 410,-473.3 455.6,-552.2 546.7,-552.2 592.2,-473.3 546.7,-394.5 			"/>
			<polygon fill="#B2B5B6" points="455.6,-236.7 410,-315.6 455.6,-394.5 546.7,-394.5 592.2,-315.6 546.7,-236.7 			"/>
			<polygon fill="#A7A9A9" points="729,-236.7 683.4,-315.6 729,-394.5 820.1,-394.5 865.6,-315.6 820.1,-236.7 			"/>
			<polygon fill="#C5C4C3" points="592.3,-157.8 546.7,-236.7 592.3,-315.6 683.4,-315.6 728.9,-236.7 683.4,-157.8 			"/>
			<polygon fill="#DBD9D6" points="865.7,-473.3 820.1,-552.2 865.7,-631.1 956.8,-631.1 1002.3,-552.2 956.8,-473.3 			"/>
			<polygon fill="#D2D1D4" points="865.7,-631.1 820.1,-710 865.7,-788.9 956.8,-788.9 1002.3,-710 956.8,-631.1 			"/>
			<polygon fill="#B9B8B9" points="865.7,-315.6 820.1,-394.5 865.7,-473.3 956.8,-473.3 1002.3,-394.5 956.8,-315.6 			"/>
			<polygon fill="#5B6166" points="865.7,-157.8 820.1,-236.7 865.7,-315.6 956.8,-315.6 1002.3,-236.7 956.8,-157.8 			"/>
			<polygon fill="#41464B" points="318.9,-157.8 273.4,-236.7 318.9,-315.6 410,-315.6 455.6,-236.7 410,-157.8 			"/>
			<polygon fill="#C7C9C8" points="318.9,-315.6 273.4,-394.5 318.9,-473.3 410,-473.3 455.6,-394.5 410,-315.6 			"/>
			<polygon fill="#A4A7A9" points="318.9,-473.3 273.4,-552.2 318.9,-631.1 410,-631.1 455.6,-552.2 410,-473.3 			"/>
			<polygon fill="#867D7F" points="318.9,-631.1 273.4,-710 318.9,-788.9 410,-788.9 455.6,-710 410,-631.1 			"/>
			<polygon fill="#ADAFB0" points="592.3,-315.6 546.7,-394.5 592.3,-473.3 683.4,-473.3 728.9,-394.5 683.4,-315.6 			"/>
			<polygon fill="#8C8F93" points="592.3,-631.1 546.7,-710 592.3,-788.9 683.4,-788.9 728.9,-710 683.4,-631.1 			"/>
		</g>
		<g>
			<polygon fill="#B9BBBB" points="182.3,-394.5 136.7,-473.3 182.3,-552.2 273.4,-552.2 318.9,-473.3 273.4,-394.5 			"/>
			<polygon fill="#A7A9A9" points="182.3,-552.2 136.7,-631.1 182.3,-710 273.4,-710 318.9,-631.1 273.4,-552.2 			"/>
			<polygon fill="#C5C4C3" points="45.5,-473.3 0,-552.2 45.5,-631.1 136.6,-631.1 182.2,-552.2 136.6,-473.3 			"/>
			<polygon fill="#B9B8B9" points="319,-631.1 273.4,-710 319,-788.9 410,-788.9 455.6,-710 410,-631.1 			"/>
			<polygon fill="#5B6166" points="319,-473.3 273.4,-552.2 319,-631.1 410,-631.1 455.6,-552.2 410,-473.3 			"/>
			<polygon fill="#ADAFB0" points="45.5,-631.1 0,-710 45.5,-788.9 136.6,-788.9 182.2,-710 136.6,-631.1 			"/>
		</g>
	</g>
</pattern>
<path fill="#0092FF" d="M3354.1,503.1h35.7c1.1,0,2.1,0.6,2.6,1.5l37.6,65.1c0.5,0.9,0.5,2.1,0,3l-37.6,65.1
	c-0.5,0.9-1.5,1.5-2.6,1.5h-75.2c-1.1,0-2.1-0.6-2.6-1.5l-19.5-33.8h-35.7c-1.1,0-2.1-0.6-2.6-1.5l-37.6-65.1c-0.5-0.9-0.5-2.1,0-3
	l37.6-65.1c0.5-0.9,1.5-1.5,2.6-1.5h75.2c1.1,0,2.1,0.6,2.6,1.5L3354.1,503.1z"/>
<g>
	<g>
		<g>
			<path fill="#FFFFFF" d="M3349.8,535.7c0.6,0.8,0.5,10.3,0.5,10.9c0,4.9,0.4,9.9,0,14.8c-0.6,7.5-1.9,14.2-6,20.4
				c-5.9,8.8-11.7,17.6-17.6,26.5c-2.5,3.7-1.1,6.8,3.4,7.3c0.8,0.1,1.6,0.1,2.4,0.1c8,0,15.9,0,23.9,0c8.5,0,16.9,0,25.4,0
				c2.2,0,4.3-0.4,5.5-2.6c1.1-2.1-0.1-3.8-1.2-5.5c-5.1-7.6-10-15.4-15.4-22.9c-5.6-7.8-7.3-16.5-7.8-25.8
				c-0.3-5.4,0.3-10.9,0.5-16.3c0-1.3,0.2-6.4,0.4-7c0.4-1.1,4.8-0.8,4.8-0.8c3.2,0,4.2,1.8,2.5,4.4c-1.6,2.5-3.1,5-3,7.9
				c0.1,6-0.4,12.1,0.7,18.1c0.8,4.5,2.2,8.6,4.7,12.3c6,8.9,12,17.8,17.8,26.8c1.3,2.1,2.3,4.7,2.6,7.1c0.5,5.1-2.8,9-8.1,9.9
				c-2.3,0.4-4.7,0.4-7,0.5c-7.4,0.1-14.9,0-22.3,0c-7.9,0-15.9,0-23.8,0c-1.3,0-2.6-0.1-3.9-0.3c-8.5-1.3-11.9-8.9-7.3-16.3
				c2.3-3.6,4.8-7.1,7.1-10.6c3.8-5.8,7.6-11.6,11.4-17.3c3.1-4.7,4.8-10.3,5.3-15.9c0.4-5,0.4-9.2,0-14.1c-0.4-2.9-1.4-5.5-3-7.9
				c-1.8-2.7-0.7-4.5,2.5-4.5C3344.7,534.8,3349.1,534.5,3349.8,535.7z"/>
			<path fill="#FFFFFF" d="M3368,585.7c5.3,6.9,9.7,14.5,14.4,21.9c0.6,0.9,0.9,2.6,0.5,3.3c-0.5,0.8-2,1.4-3.1,1.4
				c-7.7,0.1-15.4,0.1-23.2,0.1c-7.6,0-15.2,0.1-22.7-0.1c-1.2,0-2.9-0.6-3.4-1.6c-0.5-0.7,0.1-2.5,0.7-3.5
				c4.6-7.2,9.3-14.3,14-21.4L3368,585.7z"/>
			<circle fill="#0092FF" cx="3348.8" cy="593.9" r="3.4"/>
			<circle fill="#0092FF" cx="3357.8" cy="590.2" r="2.4"/>
		</g>
		<path fill="#FFFFFF" d="M3366.6,540.9h-22.2l1-6.2c0,0,11.6,0.9,23.2,0C3370.2,534.6,3366.6,540.9,3366.6,540.9z"/>
	</g>
	<circle fill="#FDFFFE" cx="3352.8" cy="580.4" r="2.9"/>
</g>
<text transform="matrix(1 0 0 1 3238.7551 570.5695)" fill="#FFFFFF" font-family="'Aller'" font-size="92.1469">Nf</text>
<rect y="0" fill="url(#Hexforever)" width="4000" height="2060.6"/>
<g>
	<polygon fill="#0092FF" points="2221.5,924.8 2175.9,846 2221.5,767.1 2312.5,767.1 2358.1,846 2312.5,924.8 	"/>
	<polygon fill="#21EFB8" points="2357.5,1003.7 2311.9,924.8 2357.5,846 2448.5,846 2494.1,924.8 2448.5,1003.7 	"/>
	<g>
		<g>
			<g>
				<path fill="#FFFFFF" d="M2395.1,874.9c0.6,1,0.6,11.7,0.6,12.4c0,5.6,0.5,11.2,0,16.8c-0.7,8.5-2.2,16.1-6.8,23.1
					c-6.7,10-13.3,20-19.9,30c-2.8,4.2-1.2,7.7,3.8,8.3c0.9,0.1,1.8,0.1,2.7,0.1c9,0,18,0,27,0c9.6,0,19.2,0,28.8,0
					c2.5,0,4.9-0.5,6.2-2.9c1.3-2.4-0.1-4.3-1.4-6.2c-5.8-8.6-11.3-17.5-17.5-25.9c-6.4-8.8-8.3-18.6-8.8-29.2
					c-0.3-6.1,0.3-12.3,0.5-18.5c0.1-1.5,0.2-7.3,0.4-7.9c0.4-1.2,5.5-1,5.5-1c3.6,0,4.8,2,2.8,5c-1.8,2.8-3.5,5.7-3.4,9
					c0.2,6.8-0.4,13.7,0.8,20.5c0.9,5,2.4,9.7,5.3,14c6.8,10.1,13.6,20.2,20.2,30.4c1.5,2.4,2.6,5.3,2.9,8.1
					c0.6,5.8-3.2,10.2-9.2,11.2c-2.6,0.4-5.3,0.5-8,0.5c-8.4,0.1-16.9,0-25.3,0c-9,0-18,0-27,0c-1.5,0-3-0.1-4.5-0.4
					c-9.6-1.5-13.5-10.1-8.2-18.4c2.6-4.1,5.4-8,8.1-12c4.3-6.5,8.6-13.1,12.9-19.7c3.5-5.3,5.5-11.7,6-18c0.5-5.6,0.5-10.4,0-16
					c-0.5-3.3-1.6-6.2-3.4-9c-2-3.1-0.8-5.1,2.9-5.1C2389.3,873.9,2394.2,873.6,2395.1,874.9z"/>
				<path fill="#FFFFFF" d="M2415.6,931.7c6,7.9,11,16.5,16.3,24.8c0.7,1,1,2.9,0.5,3.8c-0.5,0.9-2.3,1.6-3.5,1.6
					c-8.8,0.1-17.5,0.1-26.3,0.1c-8.6,0-17.2,0.1-25.8-0.1c-1.4,0-3.3-0.7-3.9-1.8c-0.5-0.8,0.1-2.8,0.8-4
					c5.2-8.1,10.5-16.2,15.9-24.3L2415.6,931.7z"/>
				<circle fill="#21EFB8" cx="2393.9" cy="940.9" r="3.8"/>
				<circle fill="#21EFB8" cx="2404.1" cy="936.7" r="2.7"/>
			</g>
			<path fill="#FFFFFF" d="M2414.1,880.9h-25.2l1.1-7c0,0,13.1,1,26.3,0C2418.2,873.7,2414.1,880.9,2414.1,880.9z"/>
		</g>
		<circle fill="#FDFFFE" cx="2398.4" cy="925.7" r="3.3"/>
	</g>
	<text transform="matrix(1 0 0 1 2205.666 889.0984)" fill="#FFFFFF" font-family="'Aller'" font-size="109.5414">Nf</text>
</g>
</svg>
